<svg id="Layer_1" data-name="Layer 1" xmlns="http://www.w3.org/2000/svg" xmlns:xlink="http://www.w3.org/1999/xlink" viewBox="0 0 110 110"><defs><style>.cls-1{fill:none;}.cls-2{fill:#0051a4;}.cls-3{fill:#1a4689;}.cls-4{fill:#fff;}.cls-5{clip-path:url(#clip-path);}.cls-6{fill:#40a2db;}.cls-7{fill:#7dd3f7;}.cls-8{fill:#107ec2;}.cls-9{fill:#f2e73f;}.cls-10{fill:#4693d0;}.cls-11{fill:#98daf6;}</style><clipPath id="clip-path"><path class="cls-1" d="M82.21,10.67C71,7.85,55,7.92,55,7.92s-16-.07-27.21,2.75S14.65,21.37,14.65,27.78V59.46c0,16.89,11.49,25.29,23.06,34.29,5.76,4.48,12.38,8.33,17.29,8.33s10.89-3.21,17.29-8.33c11.45-9.16,23.06-17.4,23.06-34.29V27.78C95.35,21.37,93.47,13.48,82.21,10.67Z"/></clipPath></defs><path class="cls-2" d="M82.21,10.67C71,7.85,55,7.92,55,7.92s-16-.07-27.21,2.75S14.65,21.37,14.65,27.78V59.46c0,16.89,11.49,25.29,23.06,34.29,5.76,4.48,12.38,8.33,17.29,8.33s10.89-3.21,17.29-8.33c11.45-9.16,23.06-17.4,23.06-34.29V27.78C95.35,21.37,93.47,13.48,82.21,10.67Z"/><path class="cls-3" d="M77,23c-9.12-2.27-22-2.22-22-2.22S42.09,20.68,33,23,22.34,31.62,22.34,36.81V62.46c0,13.67,9.29,20.47,18.66,27.75C45.67,93.84,51,97,55,97s8.81-2.59,14-6.74c9.27-7.41,18.66-14.08,18.66-27.75V36.81C87.66,31.62,86.15,25.23,77,23Z"/><path class="cls-4" d="M92.59,65.82a9.12,9.12,0,0,0-9.13-9.12,9,9,0,0,0-5.07,1.54,5.66,5.66,0,0,0-4.63-2.41,5.52,5.52,0,0,0-2.34.51A8.75,8.75,0,0,0,57.79,53,9.12,9.12,0,0,0,41,55.05a6.54,6.54,0,0,0-1.78-.25,6.84,6.84,0,0,0-5.72,3.09,8.76,8.76,0,0,0-16.21,4.63,8.67,8.67,0,0,0,1.36,4.68,9.6,9.6,0,0,0,7.91,15A10.1,10.1,0,0,0,28.66,82a7.74,7.74,0,0,0,13.63,1.88,6.59,6.59,0,0,0,11.52-.38h.06a6.6,6.6,0,0,0,12.54,0,6.42,6.42,0,0,0,11.07-.47A8.58,8.58,0,0,0,89.72,72.46,9.13,9.13,0,0,0,92.59,65.82Z"/><g class="cls-5"><path class="cls-6" d="M70.45,35.5a.9.9,0,0,1,.57.9c-.1,1.81-.23,7,1.77,7.46.9.23,1.61.38,2.15.48a.89.89,0,0,1,.64,1.29c-.74,1.46-1.69,4.1-.41,6.46.89,1.64.83,2.71.52,3.37a.9.9,0,0,1-1.57.11c-1.55-2.38-5.74-9.21-7.35-15.42S68.92,34.9,70.45,35.5Z"/><path class="cls-6" d="M83,28.69c.23,0,.48.24.45.46A48.66,48.66,0,0,0,83,36.49a.41.41,0,0,1-.48.35c-1.46-.24-5.94-.4-7.43-.44V28.59C76.74,28.61,81.35,28.64,83,28.69Z"/><path class="cls-7" d="M31.06,40.89a25.3,25.3,0,0,1,1.26-3.11c1.81-3.66,4.49-7.33,8.52-8.45,3.27-.91,7.76-.91,12.43-.86,4,0,18.53.09,21.83.12V36.4a16.78,16.78,0,0,0-9.25,2.19,8.77,8.77,0,0,0-3.37,3.93c-.72,1.59-1.06,7.31-1.21,9a.58.58,0,0,1-.05.57,2.45,2.45,0,0,1,0,.27c0,.29-.49.15-.49-.11v0a25.71,25.71,0,0,0-12.54,0c-.46.12-.82.2-.85-.2-.21-4.12-.45-6.95-.66-8.6-.17-1.34-2.34-5.08-5.34-3.26a9.23,9.23,0,0,0-2.88,3.17,22.21,22.21,0,0,0-2,4.56c-.09.27-.5.26-.7.13L32.59,46c-.8-.54-1.89-1.06-2.13-2.08A6.09,6.09,0,0,1,31.06,40.89Z"/><path class="cls-6" d="M46.43,53.94a42.89,42.89,0,0,1,.46-5.35H61.6a44.87,44.87,0,0,1,.46,5.35c.11,2.44.15,4.9.12,7.35H46.3C46.27,58.84,46.31,56.38,46.43,53.94Z"/><rect class="cls-8" x="47.78" y="50.36" width="0.99" height="9.94" rx="0.21"/><rect class="cls-8" x="49.77" y="50.36" width="0.99" height="9.94" rx="0.21"/><rect class="cls-8" x="51.76" y="50.36" width="0.99" height="9.94" rx="0.21"/><rect class="cls-8" x="53.75" y="50.36" width="0.99" height="9.94" rx="0.21"/><rect class="cls-8" x="55.73" y="50.36" width="0.99" height="9.94" rx="0.21"/><rect class="cls-8" x="57.72" y="50.36" width="0.99" height="9.94" rx="0.21"/><rect class="cls-8" x="59.71" y="50.36" width="0.99" height="9.94" rx="0.21"/><path class="cls-4" d="M32.58,43.07H32.5a.24.24,0,0,1-.14-.31c.1-.27,2.45-6.71,5.23-9.07,3.75-3.19,8.3-3.2,12.31-3.21.93,0,1.82,0,2.69,0,4.65-.21,19.77-.11,19.92-.11a.24.24,0,0,1,.24.25.24.24,0,0,1-.24.24h0c-.15,0-15.26-.11-19.9.1-.88,0-1.77,0-2.71.05-4.12,0-8.38,0-12,3.1-2.68,2.28-5.07,8.8-5.09,8.86A.25.25,0,0,1,32.58,43.07Z"/><path class="cls-4" d="M81.58,35.39a.25.25,0,0,1-.24-.25V30a.24.24,0,1,1,.48,0v5.12A.25.25,0,0,1,81.58,35.39Z"/><path class="cls-4" d="M74.86,54.6a.26.26,0,0,1-.22-.13s-1.88-3.57-3.78-7.37a50.09,50.09,0,0,1-3-7.4.24.24,0,0,1,.16-.3.24.24,0,0,1,.3.16,49.07,49.07,0,0,0,2.93,7.33c1.9,3.79,3.76,7.32,3.78,7.36a.24.24,0,0,1-.1.32Z"/><path class="cls-4" d="M60.44,46.91H48.27a.24.24,0,0,1-.24-.24.24.24,0,0,1,.24-.24H60.44a.24.24,0,0,1,.24.24A.23.23,0,0,1,60.44,46.91Z"/><path class="cls-7" d="M60.73,60.64h-13a6,6,0,0,0-6,6v0a.59.59,0,0,0,.59.59H66.19a.58.58,0,0,0,.58-.59A6,6,0,0,0,60.73,60.64Z"/><path class="cls-6" d="M61,63.65H47.47a6,6,0,0,0-6.19,5.79v0a.58.58,0,0,0,.6.56H66.61a.58.58,0,0,0,.6-.56A6.05,6.05,0,0,0,61,63.65Z"/><path class="cls-9" d="M81.35,120.81c-1.25-6.66-8.75-46.47-9.83-49.38s-5.18-5.81-9.07-5.81H46c-3.88,0-8,2.91-9.07,5.81s-8.58,42.72-9.83,49.38c-2.9,15.49,5.81,20.34,11.62,20.34h31C75.54,141.15,84.26,136.3,81.35,120.81Z"/><path class="cls-9" d="M73.1,112.27C72.23,107.64,67,80,66.26,77.93a7.3,7.3,0,0,0-6.31-4H48.53a7.28,7.28,0,0,0-6.3,4c-.75,2-6,29.71-6.84,34.34-2,10.78,4,14.14,8.08,14.14H65C69.06,126.41,75.12,123.05,73.1,112.27Z"/><path class="cls-4" d="M73.41,80.59a8.23,8.23,0,0,0-5.22,1.86,8.57,8.57,0,0,0-15.76,2,6.14,6.14,0,0,0-1.68-.23,6.43,6.43,0,0,0-5.37,2.9,8.25,8.25,0,1,0-7,12.61c.18,0,.35,0,.53,0a7.73,7.73,0,0,0,12.23,4.86,7.62,7.62,0,0,0,13-2.21,4.78,4.78,0,0,0,1.21.15,5.33,5.33,0,0,0,5.33-5.33,5.65,5.65,0,0,0,0-.59,8.41,8.41,0,0,0,2.8.5,8.24,8.24,0,1,0,0-16.47Z"/></g><path class="cls-10" d="M55,105.28c-6.35,0-14-4.9-19.26-9l-1-.81c-11.43-8.88-23.25-18-23.25-36V27.78c0-10.84,5.23-17.64,15.56-20.22C38.53,4.68,54.35,4.72,55,4.72s16.46,0,28,2.84h0c10.33,2.58,15.56,9.38,15.56,20.22V59.46C98.55,77,87.18,86,76.19,94.74l-1.9,1.51C66.7,102.33,60.39,105.28,55,105.28Zm0-94.15c-1.11,0-16,0-26.39,2.64-7.4,1.86-10.71,6.18-10.71,14V59.46c0,14.82,9.63,22.3,20.78,30.95l1,.81c6.25,4.86,11.84,7.65,15.33,7.65,2.63,0,7.42-1.32,15.29-7.62l1.91-1.52c10.71-8.51,20-15.86,20-30.27V27.78c0-7.83-3.31-12.15-10.71-14C70.69,11.09,55.17,11.13,55,11.13Z"/><path class="cls-11" d="M55,102.4c-5.83,0-13.46-5.26-17.49-8.4l-1-.81C25.08,84.35,14.33,76,14.33,59.46V27.78c0-9.47,4.38-15.17,13.38-17.42C38.88,7.56,54.83,7.6,55,7.6s16.12,0,27.29,2.76h0c9,2.25,13.38,8,13.38,17.42V59.46c0,16.11-10.33,24.33-21.27,33L72.49,94C65.53,99.57,59.64,102.4,55,102.4ZM54.93,8.24c-1.17,0-16.35.06-27.07,2.74C19.19,13.15,15,18.64,15,27.78V59.46C15,75.69,25.6,84,36.86,92.69l1,.81c4,3.08,11.46,8.26,17.1,8.26,4.49,0,10.24-2.78,17.09-8.26L74,92c10.81-8.6,21-16.72,21-32.52V27.78c0-9.14-4.22-14.63-12.89-16.8C71,8.2,55.16,8.24,55,8.24Z"/><path class="cls-4" d="M41.05,19.18a2.55,2.55,0,1,1,1.15,3.43A2.56,2.56,0,0,1,41.05,19.18Z"/><path class="cls-7" d="M31.48,20.29a2.49,2.49,0,0,0,2-2.18c0-.21.38-.21.41,0a2.51,2.51,0,0,0,2,2.18c.23.05.24.47,0,.51a2.48,2.48,0,0,0-2,2.14.15.15,0,0,1-.07.11.18.18,0,0,1-.29-.11,2.47,2.47,0,0,0-2-2.14C31.24,20.76,31.25,20.34,31.48,20.29Z"/><path class="cls-7" d="M27,49.93a1.77,1.77,0,0,0,1.39-1.55.15.15,0,0,1,.29,0,1.79,1.79,0,0,0,1.42,1.55.19.19,0,0,1,0,.36,1.76,1.76,0,0,0-1.44,1.51.1.1,0,0,1-.05.08.13.13,0,0,1-.2-.08A1.75,1.75,0,0,0,27,50.29.19.19,0,0,1,27,49.93Z"/><path class="cls-7" d="M87.2,33.28a1.78,1.78,0,0,0,1.4-1.55c0-.14.27-.14.29,0a1.78,1.78,0,0,0,1.42,1.55.19.19,0,0,1,0,.36,1.76,1.76,0,0,0-1.44,1.51.13.13,0,0,1-.26,0,1.74,1.74,0,0,0-1.41-1.51C87,33.61,87,33.31,87.2,33.28Z"/><path class="cls-7" d="M64.77,18.66a2,2,0,0,0,1.55-1.72.17.17,0,0,1,.32,0,2,2,0,0,0,1.58,1.72c.18,0,.19.36,0,.39a2,2,0,0,0-1.6,1.68.11.11,0,0,1-.06.09.14.14,0,0,1-.22-.09,2,2,0,0,0-1.57-1.68C64.58,19,64.59,18.69,64.77,18.66Z"/><circle class="cls-4" cx="26.67" cy="27.92" r="4.63"/><circle class="cls-4" cx="85.57" cy="46.67" r="5.01"/><circle class="cls-4" cx="76.91" cy="22.29" r="3.12"/><path class="cls-4" d="M24.76,44.76A2.81,2.81,0,1,1,22,42,2.81,2.81,0,0,1,24.76,44.76Z"/></svg>